<svg width="555" height="360" fill="none" xmlns="http://www.w3.org/2000/svg"><path d="M277.5 324.608c152.983 0 277-7.306 277-16.319 0-9.013-124.017-16.319-277-16.319S.5 299.276.5 308.289c0 9.013 124.017 16.319 277 16.319z" fill="#B6C3CC"/><path d="M185.675 96.556v6.843h-27.869v-6.843a2.469 2.469 0 010-.298 7.573 7.573 0 017.572-7.283h12.713a7.596 7.596 0 015.819 2.742 7.47 7.47 0 011.765 4.84z" fill="#697172"/><path d="M180.273 102.481H163.22v187.176h17.053V102.481z" fill="#697172"/><path d="M197.935 289.574h-52.4v14.09h52.4v-14.09z" fill="#697172"/><path d="M197.946 289.574v14.09h-26.354a10.106 10.106 0 00-9.97-8.464h-16.087v-5.626h52.411z" fill="#606060"/><path d="M185.675 96.556v6.843h-5.414v186.27h-8.538a15.302 15.302 0 00-2.636-8.213 15.837 15.837 0 00-5.497-4.971l-.37-.203v-15.818h8.527v-52.761a15.772 15.772 0 00-8.527-14.042v-15.64h8.527v-66.54a15.075 15.075 0 00-2.314-8.047 6.129 6.129 0 00-.644-.953 12.291 12.291 0 00-1.55-1.812 15.005 15.005 0 00-9.421-4.375 7.573 7.573 0 017.572-7.283h12.713a7.597 7.597 0 015.819 2.741 7.467 7.467 0 011.753 4.804z" fill="#606060"/><path d="M171.937 89.964c11.928 0 21.597-9.665 21.597-21.588 0-11.923-9.669-21.588-21.597-21.588-11.927 0-21.596 9.665-21.596 21.588 0 11.923 9.669 21.588 21.596 21.588z" fill="#D0493A"/><path d="M187.917 77.329a18.462 18.462 0 01-5.748 6.234m-5.521 2.515a17.9 17.9 0 01-4.019.596m-15.682-28.836a20.13 20.13 0 011.694-2.074m3.446-2.837a18.385 18.385 0 0118.902-.477" stroke="#F5DA34" stroke-miterlimit="10" stroke-linecap="round"/><path opacity=".4" d="M181.411 79.56c6.176-5.23 6.941-14.475 1.709-20.648-5.232-6.174-14.48-6.939-20.656-1.709-6.176 5.23-6.942 14.475-1.709 20.648 5.232 6.174 14.48 6.939 20.656 1.709z" fill="#F5DA34"/><path d="M171.937 77.996c5.315 0 9.624-4.307 9.624-9.62s-4.309-9.62-9.624-9.62-9.623 4.307-9.623 9.62c0 5.313 4.308 9.62 9.623 9.62z" fill="#F5DA34"/><path d="M166.416 206.63v13.256m0 62.404v5.114" stroke="#919A9B" stroke-linecap="round" stroke-linejoin="round"/><path d="M397.194 96.556v6.843h-27.869v-6.843a2.469 2.469 0 010-.298 7.568 7.568 0 017.572-7.283h12.701a7.596 7.596 0 017.572 7.581h.024z" fill="#697172"/><path d="M391.78 102.481h-17.053v187.176h17.053V102.481z" fill="#697172"/><path d="M409.453 289.574h-52.399v14.09h52.399v-14.09z" fill="#697172"/><path d="M409.453 289.574v14.09H383.11a10.1 10.1 0 00-9.981-8.464h-16.075v-5.626h52.399z" fill="#606060"/><path d="M397.194 96.556v6.843h-5.414v186.27h-8.539a15.292 15.292 0 00-2.635-8.213 15.942 15.942 0 00-5.498-4.971l-.381-.203v-15.818h8.526v-52.761a15.77 15.77 0 00-2.707-8.869 15.601 15.601 0 00-5.819-5.173v-15.64h8.526v-66.54a15.059 15.059 0 00-2.301-8.047 8.421 8.421 0 00-.644-.953c-.461-.65-.98-1.256-1.55-1.812a15.005 15.005 0 00-9.421-4.375 7.568 7.568 0 017.572-7.283h12.689a7.597 7.597 0 017.572 7.581l.024-.036z" fill="#606060"/><path d="M383.444 89.964c11.928 0 21.597-9.665 21.597-21.588 0-11.923-9.669-21.588-21.597-21.588-11.927 0-21.596 9.665-21.596 21.588 0 11.923 9.669 21.588 21.596 21.588z" fill="#D0493A"/><path d="M399.436 77.329a18.384 18.384 0 01-5.76 6.234m-5.509 2.515a18.01 18.01 0 01-4.031.596m-15.67-28.836a20.12 20.12 0 011.693-2.074m3.447-2.837a18.382 18.382 0 0118.901-.477" stroke="#F5DA34" stroke-miterlimit="10" stroke-linecap="round"/><path opacity=".4" d="M397.644 72.028c2.016-7.837-2.705-15.822-10.544-17.837-7.84-2.015-15.829 2.704-17.845 10.54-2.015 7.836 2.706 15.822 10.545 17.837 7.839 2.015 15.829-2.704 17.844-10.54z" fill="#F5DA34"/><path d="M383.444 77.996c5.315 0 9.624-4.307 9.624-9.62s-4.309-9.62-9.624-9.62-9.624 4.307-9.624 9.62c0 5.313 4.309 9.62 9.624 9.62z" fill="#F5DA34"/><path d="M377.935 206.63v13.256m0 62.404v5.114" stroke="#919A9B" stroke-linecap="round" stroke-linejoin="round"/><path d="M419.959 226.514H135.041v41.352h284.918v-41.352z" fill="#FEFCF3"/><path d="M166.464 226.514l-31.423 31.482v-16.915l14.548-14.567h16.875zm33.08 0l-41.285 41.352h-16.898l41.285-41.352h16.898zm33.057 0l-41.285 41.352H174.43l41.285-41.352h16.886zm33.081 0l-41.285 41.352h-16.898l41.285-41.352h16.898zm33.081 0l-41.286 41.352h-16.91l41.298-41.352h16.898zm33.057 0l-41.286 41.352h-16.898l41.286-41.352h16.898zm33.08 0l-41.285 41.352h-16.91l41.297-41.352H364.9zm33.057 0l-41.285 41.352h-16.886l41.285-41.352h16.886zm22.002 0v11.11l-30.206 30.242h-16.91l41.297-41.352h5.819zm0 27.298v14.054h-14.036l14.036-14.054z" fill="#D0493A"/><path d="M419.959 226.49v41.352h-83.023a92.161 92.161 0 00-67.557-29.336H135.041V226.49h284.918z" fill="#606060" opacity=".3"/><path d="M419.959 102.481H135.041v82.693h284.918v-82.693z" fill="#FEFCF3"/><path d="M184.9 102.481l-49.859 49.947v-26.607l23.314-23.34H184.9zm53.115 0l-82.558 82.693h-20.416v-6.163l76.405-76.53h26.569zm53.092 0l-82.559 82.693h-26.546l82.559-82.693h26.546zm53.115 0l-82.559 82.693h-26.545l82.558-82.693h26.546zm53.115 0l-82.57 82.693h-26.558l82.559-82.693h26.569zm22.622 3.922v26.582l-52.089 52.189h-26.546l78.635-78.771zm0 55.955v22.816h-22.777l22.777-22.816z" fill="#D0493A"/><path d="M286.909 171.775H153.835a8.35 8.35 0 01-8.348-8.285 8.344 8.344 0 018.348-8.344h133.074a8.252 8.252 0 013.189.63 8.253 8.253 0 015.099 7.714 8.345 8.345 0 01-8.288 8.285zm-32.985 90.322H153.835a8.35 8.35 0 01-8.348-8.285 8.343 8.343 0 018.348-8.344h100.089a8.346 8.346 0 018.347 8.344 8.348 8.348 0 01-8.347 8.285z" fill="#FEFCF3" opacity=".3"/><path d="M135.041 102.517v24.913h134.338a91.988 91.988 0 0140.748 9.453l-48.309 48.291h73.281l18.723-18.716a91.921 91.921 0 0110.267 18.716h55.87v-82.657H135.041z" fill="#606060" opacity=".3"/><path d="M359.951 147.695a7.362 7.362 0 01-2.063 3.863l-33.617 33.616H277.5v-82.657h41.917l38.471 38.467a7.512 7.512 0 012.063 6.711z" fill="#606060" opacity=".3"/><path d="M351.711 143.893a5.6 5.6 0 01-1.646 3.969l-73.316 73.3a5.619 5.619 0 01-7.931 0l-73.316-73.347a5.578 5.578 0 010-7.916l56.227-56.205L268.818 66.6a5.62 5.62 0 017.931 0l73.316 73.299a5.555 5.555 0 011.646 3.994z" fill="#F5DA34"/><path d="M351.711 143.893a5.6 5.6 0 01-1.646 3.969l-73.316 73.3a5.619 5.619 0 01-7.931 0l-13.976-13.983 30.481-30.481a41.974 41.974 0 0012.308-29.688 41.953 41.953 0 00-12.308-29.688l-33.594-33.58 17.089-17.094a5.62 5.62 0 017.931 0l73.316 73.299a5.563 5.563 0 011.646 3.946z" fill="#E5C62C"/><path d="M258.339 142.034h-4.592v5.888h-4.665v-5.888h-14.22v-3.333l12.775-16.7h5.148l-12.035 15.96h8.48v-5.221h4.517v5.221h4.592v4.073zm12.839 6.258c-2.074 0-3.925-.518-5.555-1.555-1.629-1.062-2.913-2.592-3.851-4.592-.938-2.024-1.407-4.419-1.407-7.184 0-2.765.469-5.147 1.407-7.146.938-2.025 2.222-3.555 3.851-4.592 1.63-1.062 3.481-1.592 5.555-1.592 2.073 0 3.925.53 5.554 1.592 1.654 1.037 2.95 2.567 3.888 4.592.939 1.999 1.408 4.381 1.408 7.146 0 2.765-.469 5.16-1.408 7.184-.938 2-2.234 3.53-3.888 4.592-1.629 1.037-3.481 1.555-5.554 1.555zm0-4.184c1.851 0 3.308-.766 4.369-2.296 1.087-1.531 1.63-3.814 1.63-6.851 0-3.036-.543-5.32-1.63-6.85-1.061-1.531-2.518-2.296-4.369-2.296-1.827 0-3.284.765-4.37 2.296-1.061 1.53-1.592 3.814-1.592 6.85 0 3.037.531 5.32 1.592 6.851 1.086 1.53 2.543 2.296 4.37 2.296zm37.209-2.074h-4.591v5.888h-4.666v-5.888h-14.22v-3.333l12.776-16.7h5.147l-12.035 15.96h8.48v-5.221h4.518v5.221h4.591v4.073z" fill="#414A51"/><path d="M210.086 146.265a2.126 2.126 0 01-2.082-2.536 2.127 2.127 0 011.668-1.667 2.121 2.121 0 11.414 4.203z" fill="#494947"/><path d="M210.516 146.265a2.127 2.127 0 01-1.961-1.31 2.118 2.118 0 01.46-2.312 2.123 2.123 0 111.501 3.622z" fill="#606060"/><path d="M335.528 142.021a2.123 2.123 0 11-.025 4.245 2.123 2.123 0 01.025-4.245z" fill="#494947"/><path d="M335.099 146.265a2.123 2.123 0 100-4.246 2.123 2.123 0 000 4.246z" fill="#606060"/><path d="M272.79 215.595a5.99 5.99 0 01-2.285-.45 5.978 5.978 0 01-1.937-1.291l-65.756-65.741a5.96 5.96 0 010-8.428l65.756-65.778a6.107 6.107 0 018.431 0l65.768 65.73a5.96 5.96 0 010 8.428l-65.768 65.789a5.966 5.966 0 01-4.209 1.741zm0-141.497a4.082 4.082 0 00-2.886 1.192l-65.756 65.73a4.073 4.073 0 000 5.757l65.756 65.73a4.15 4.15 0 005.76 0l65.756-65.73a4.01 4.01 0 001.192-2.872 4.061 4.061 0 00-1.192-2.885l-65.756-65.73a4.051 4.051 0 00-2.874-1.192z" fill="#fff"/><path d="M506.99 289.657h-67.879L444.204 270l4.293-16.677 3.589-13.84 4.293-16.664 10.447-40.411h12.45l10.434 40.411 4.305 16.664 3.578 13.84L501.898 270l5.092 19.657z" fill="#D0493A"/><path d="M494.015 239.483h-41.929l4.293-16.676h33.343l4.293 16.676zM501.898 270h-57.695l4.294-16.677h49.096L501.898 270z" fill="#FEFCF3"/><path d="M521.634 289.574h-97.167v14.09h97.167v-14.09z" fill="#C44339"/><path d="M521.634 289.574v14.09h-44.123a10.087 10.087 0 00-9.97-8.464h-43.074v-5.626h97.167z" fill="#606060" opacity=".3"/><path d="M475.03 289.669c14.525-65.754-8.204-107.285-8.204-107.285h12.45l10.434 40.411 4.305 16.688 3.578 13.84 4.305 16.689 5.092 19.657h-31.96z" fill="#606060" opacity=".3"/><path d="M468.46 245.944c-3.387 17.428-8.754 30.994-11.997 30.422-3.244-.573-3.137-15.271.238-32.71 3.375-17.44 8.753-30.994 11.997-30.422 3.244.573 3.184 15.271-.238 32.71z" fill="#FEFCF3" opacity=".3"/><path d="M115.889 289.657h-67.88L53.103 270l4.293-16.677 3.59-13.84 4.293-16.664 10.446-40.411h12.45l10.435 40.411 4.305 16.664 3.577 13.84L110.797 270l5.092 19.657z" fill="#D0493A"/><path d="M102.914 239.483h-41.93l4.294-16.676H98.62l4.293 16.676zM110.797 270H53.102l4.305-16.677h49.096L110.797 270z" fill="#FEFCF3"/><path d="M130.533 289.574H33.366v14.09h97.167v-14.09z" fill="#C44339"/><path d="M130.533 289.574v14.09H86.409a10.096 10.096 0 00-9.981-8.464H33.366v-5.626h97.167z" fill="#606060" opacity=".3"/><path d="M83.929 289.669c14.525-65.754-8.205-107.285-8.205-107.285h12.45l10.435 40.411 4.305 16.688 3.578 13.84 4.305 16.689 5.092 19.657h-31.96z" fill="#606060" opacity=".3"/><path d="M77.358 245.944c-3.387 17.428-8.753 30.994-11.997 30.422-3.244-.573-3.136-15.271.25-32.71 3.387-17.44 8.754-30.994 11.997-30.422 3.244.573 3.125 15.271-.25 32.71z" fill="#FEFCF3" opacity=".3"/></svg>