<svg width="154" height="194" fill="none" xmlns="http://www.w3.org/2000/svg"><path d="M0 149.026a10 10 0 0110.013-10.013c5.508 0 10.013 4.473 10.013 10.013 0 5.507-4.505 10.013-10.013 10.013-5.54 0-10.013-4.506-10.013-10.013zm0-34.745a10 10 0 0110.013-10.013c5.508 0 10.013 4.473 10.013 10.013 0 5.507-4.505 10.013-10.013 10.013-5.54 0-10.013-4.506-10.013-10.013zm0-34.778C0 73.996 4.473 69.49 10.013 69.49c5.508 0 10.013 4.506 10.013 10.013 0 5.54-4.505 10.013-10.013 10.013A10 10 0 010 79.503zm0-34.745c0-5.507 4.473-10.013 10.013-10.013 5.508 0 10.013 4.506 10.013 10.013 0 5.54-4.505 10.013-10.013 10.013A10 10 0 010 44.758zm0-34.745A10 10 0 0110.013 0c5.508 0 10.013 4.472 10.013 10.013 0 5.54-4.505 10.013-10.013 10.013A10 10 0 010 10.013zm10.013 183.771a10.14 10.14 0 01-7.11-2.937A10.173 10.173 0 010 183.771c0-2.636 1.068-5.206 2.904-7.076 3.771-3.738 10.447-3.738 14.185 0a10.065 10.065 0 012.937 7.076c0 2.637-1.068 5.207-2.937 7.076a10.062 10.062 0 01-7.076 2.937zm23.363-44.758a10 10 0 0110.013-10.013c5.507 0 10.013 4.473 10.013 10.013 0 5.507-4.506 10.013-10.013 10.013-5.54 0-10.013-4.506-10.013-10.013zm0-34.745a10 10 0 0110.013-10.013c5.507 0 10.013 4.473 10.013 10.013 0 5.507-4.506 10.013-10.013 10.013-5.54 0-10.013-4.506-10.013-10.013zm0-34.778c0-5.507 4.472-10.013 10.013-10.013 5.507 0 10.013 4.506 10.013 10.013 0 5.54-4.506 10.013-10.013 10.013a10 10 0 01-10.013-10.013zm0-34.745c0-5.507 4.472-10.013 10.013-10.013 5.507 0 10.013 4.506 10.013 10.013 0 5.54-4.506 10.013-10.013 10.013a10 10 0 01-10.013-10.013zm0-34.745A10 10 0 0143.389 0c5.507 0 10.013 4.472 10.013 10.013 0 5.54-4.506 10.013-10.013 10.013a10 10 0 01-10.013-10.013zM43.39 193.784a10.14 10.14 0 01-7.11-2.937 10.173 10.173 0 01-2.904-7.076 10.18 10.18 0 012.904-7.076c3.772-3.738 10.447-3.738 14.185 0a10.065 10.065 0 012.937 7.076c0 2.637-1.068 5.207-2.937 7.076a10.062 10.062 0 01-7.076 2.937zm23.363-44.758a10 10 0 0110.013-10.013c5.507 0 10.013 4.473 10.013 10.013 0 5.507-4.505 10.013-10.013 10.013-5.54 0-10.013-4.506-10.013-10.013zm0-34.745a10 10 0 0110.013-10.013c5.507 0 10.013 4.473 10.013 10.013 0 5.507-4.505 10.013-10.013 10.013-5.54 0-10.013-4.506-10.013-10.013zm0-34.778c0-5.507 4.473-10.013 10.013-10.013 5.507 0 10.013 4.506 10.013 10.013 0 5.54-4.505 10.013-10.013 10.013a10 10 0 01-10.013-10.013zm0-34.745c0-5.507 4.473-10.013 10.013-10.013 5.507 0 10.013 4.506 10.013 10.013 0 5.54-4.505 10.013-10.013 10.013a10 10 0 01-10.013-10.013zm0-34.745A10 10 0 0176.766 0C82.273 0 86.78 4.472 86.78 10.013c0 5.54-4.505 10.013-10.013 10.013a10 10 0 01-10.013-10.013zm10.013 183.772c-2.636 0-5.24-1.069-7.109-2.938a10.173 10.173 0 01-2.904-7.075c0-2.637 1.068-5.207 2.904-7.076 3.772-3.738 10.447-3.738 14.185 0a10.062 10.062 0 012.937 7.076c0 2.636-1.068 5.206-2.937 7.075a10.063 10.063 0 01-7.076 2.938zm23.364-44.758a9.999 9.999 0 0110.013-10.013c5.507 0 10.013 4.472 10.013 10.013 0 5.507-4.506 10.012-10.013 10.012-5.541 0-10.013-4.505-10.013-10.012zm0-34.745a9.999 9.999 0 0110.013-10.013c5.507 0 10.013 4.472 10.013 10.013 0 5.507-4.506 10.013-10.013 10.013-5.541 0-10.013-4.506-10.013-10.013zm0-34.779c0-5.507 4.472-10.013 10.013-10.013 5.507 0 10.013 4.506 10.013 10.013 0 5.54-4.506 10.013-10.013 10.013a10 10 0 01-10.013-10.013zm0-34.745c0-5.507 4.472-10.013 10.013-10.013 5.507 0 10.013 4.506 10.013 10.013 0 5.54-4.506 10.013-10.013 10.013a10 10 0 01-10.013-10.013zm0-34.745A10 10 0 01110.143 0c5.507 0 10.013 4.473 10.013 10.013s-4.506 10.013-10.013 10.013a10 10 0 01-10.013-10.013zm10.013 183.771c-2.637 0-5.24-1.068-7.109-2.937a10.172 10.172 0 01-2.904-7.076c0-2.636 1.068-5.206 2.904-7.076 3.771-3.738 10.446-3.738 14.185 0a10.065 10.065 0 012.937 7.076c0 2.637-1.068 5.207-2.937 7.076a10.062 10.062 0 01-7.076 2.937zm23.363-44.757a10 10 0 0110.013-10.013c5.507 0 10.013 4.473 10.013 10.013 0 5.507-4.506 10.013-10.013 10.013-5.54 0-10.013-4.506-10.013-10.013zm0-34.745a10 10 0 0110.013-10.013c5.507 0 10.013 4.473 10.013 10.013 0 5.507-4.506 10.013-10.013 10.013-5.54 0-10.013-4.506-10.013-10.013zm0-34.778c0-5.508 4.473-10.013 10.013-10.013 5.507 0 10.013 4.505 10.013 10.013 0 5.54-4.506 10.013-10.013 10.013a10 10 0 01-10.013-10.013zm0-34.745c0-5.508 4.473-10.013 10.013-10.013 5.507 0 10.013 4.505 10.013 10.013 0 5.54-4.506 10.013-10.013 10.013a10 10 0 01-10.013-10.013zm0-34.745A10 10 0 01143.519 0c5.507 0 10.013 4.472 10.013 10.013 0 5.54-4.506 10.013-10.013 10.013a10 10 0 01-10.013-10.013zm10.013 183.771c-2.636 0-5.24-1.069-7.109-2.938a10.172 10.172 0 01-2.904-7.075c0-2.637 1.068-5.207 2.904-7.076 3.772-3.738 10.447-3.738 14.185 0a10.062 10.062 0 012.937 7.076c0 2.636-1.068 5.206-2.937 7.075a10.063 10.063 0 01-7.076 2.938z" fill="#fff"/></svg>