<svg width="64" height="145" fill="none" xmlns="http://www.w3.org/2000/svg"><path d="M7.62 129.935a6.682 6.682 0 100 13.365c3.7 0 6.682-3.001 6.682-6.682.019-3.682-2.982-6.683-6.682-6.683zm0-25.79a6.681 6.681 0 100 13.364c3.7 0 6.682-3 6.682-6.682.019-3.682-2.982-6.682-6.682-6.682zm0-25.773a6.682 6.682 0 100 13.365c3.7 0 6.682-3 6.682-6.682.019-3.7-2.982-6.683-6.682-6.683zm0-25.791a6.682 6.682 0 100 13.365c3.7 0 6.682-3 6.682-6.682.019-3.7-2.982-6.683-6.682-6.683zm0-25.791a6.682 6.682 0 100 13.366c3.7 0 6.682-3.001 6.682-6.683.019-3.7-2.982-6.682-6.682-6.682zM7.62 1C3.938 1 .937 4 .937 7.682c0 3.682 3.001 6.683 6.683 6.683 3.7 0 6.682-3 6.682-6.683A6.682 6.682 0 007.62 1zm23.95 128.935a6.682 6.682 0 100 13.365c3.7 0 6.682-3.001 6.682-6.682a6.682 6.682 0 00-6.682-6.683zm0-25.79a6.681 6.681 0 100 13.364c3.7 0 6.682-3 6.682-6.682a6.681 6.681 0 00-6.682-6.682zm0-25.773a6.682 6.682 0 100 13.365c3.7 0 6.682-3 6.682-6.682a6.67 6.67 0 00-6.682-6.683zm0-25.791a6.682 6.682 0 100 13.365c3.7 0 6.682-3 6.682-6.682a6.67 6.67 0 00-6.682-6.683zm0-25.791a6.682 6.682 0 100 13.366c3.7 0 6.682-3.001 6.682-6.683a6.67 6.67 0 00-6.682-6.682zm0-25.79c-3.7 0-6.683 3-6.683 6.682 0 3.682 3 6.683 6.683 6.683 3.7 0 6.682-3 6.682-6.683A6.682 6.682 0 0031.57 1zm23.95 128.935a6.682 6.682 0 100 13.365c3.7 0 6.682-3.001 6.682-6.682a6.682 6.682 0 00-6.682-6.683zm0-25.79a6.681 6.681 0 100 13.364c3.7 0 6.682-3 6.682-6.682a6.681 6.681 0 00-6.682-6.682zm0-25.773a6.682 6.682 0 100 13.365c3.7 0 6.682-3 6.682-6.682a6.67 6.67 0 00-6.682-6.683zm0-12.426a6.682 6.682 0 100-13.365 6.682 6.682 0 000 13.365zm0-25.79a6.682 6.682 0 100-13.365 6.682 6.682 0 000 13.365zm0-25.791A6.682 6.682 0 1055.52 1a6.682 6.682 0 000 13.365z" stroke="#CED6DB" stroke-width="1.841" stroke-miterlimit="10"/></svg>