<svg width="138" height="252" fill="none" xmlns="http://www.w3.org/2000/svg"><mask id="a" maskUnits="userSpaceOnUse" x="0" y="0" width="138" height="252"><path fill="#C4C4C4" d="M0 0h138v252H0z"/></mask><g mask="url(#a)" fill="#CED6DB"><path d="M6.435 135.124a3.745 3.745 0 010 5.324 3.746 3.746 0 01-5.324 0 3.745 3.745 0 010-5.324c1.481-1.481 3.883-1.481 5.324 0zm19.135-19.136a3.745 3.745 0 010 5.324 3.744 3.744 0 01-5.324 0 3.745 3.745 0 010-5.324 3.746 3.746 0 015.325 0zm19.136-19.135a3.745 3.745 0 010 5.324 3.746 3.746 0 01-5.324 0 3.745 3.745 0 010-5.324 3.819 3.819 0 015.324 0zm16.454-12.69a3.763 3.763 0 100-7.526 3.763 3.763 0 000 7.526zm19.135-19.135a3.763 3.763 0 100-7.526 3.763 3.763 0 000 7.526zm21.777-25.541a3.744 3.744 0 010 5.325 3.745 3.745 0 01-5.324 0 3.745 3.745 0 010-5.325 3.745 3.745 0 015.324 0zm19.136-19.135a3.746 3.746 0 010 5.324 3.746 3.746 0 01-5.325 0 3.746 3.746 0 010-5.324 3.746 3.746 0 015.325 0zm19.135-19.136a3.746 3.746 0 010 5.325 3.745 3.745 0 01-5.324 0 3.744 3.744 0 010-5.325 3.818 3.818 0 015.324 0zM23.449 152.098a3.745 3.745 0 010 5.324 3.746 3.746 0 01-5.324 0 3.745 3.745 0 010-5.324 3.817 3.817 0 015.324 0zm16.453-12.691a3.762 3.762 0 10.001-7.525 3.762 3.762 0 000 7.525zm21.778-25.54a3.746 3.746 0 010 5.325 3.746 3.746 0 01-5.325 0 3.746 3.746 0 010-5.325c1.482-1.481 3.884-1.481 5.325 0zm16.493-12.731a3.763 3.763 0 100-7.525 3.763 3.763 0 000 7.525zM99.95 75.597a3.744 3.744 0 010 5.324 3.745 3.745 0 01-5.324 0 3.745 3.745 0 010-5.324 3.819 3.819 0 015.324 0zm16.454-12.691a3.763 3.763 0 100-7.526 3.763 3.763 0 000 7.526zm21.817-25.541a3.744 3.744 0 010 5.325 3.745 3.745 0 01-5.324 0 3.746 3.746 0 010-5.325 3.745 3.745 0 015.324 0zM37.26 165.949a3.746 3.746 0 010 5.325 3.746 3.746 0 01-5.324 0 3.746 3.746 0 010-5.325 3.746 3.746 0 015.324 0zm19.135-19.135a3.745 3.745 0 010 5.324 3.746 3.746 0 01-5.324 0 3.745 3.745 0 010-5.324 3.746 3.746 0 015.324 0zm16.454-12.73a3.763 3.763 0 100-7.526 3.763 3.763 0 000 7.526zm21.777-25.541a3.745 3.745 0 010 5.324 3.744 3.744 0 01-5.324 0 3.745 3.745 0 010-5.324c1.481-1.441 3.883-1.441 5.324 0zm16.493-12.69a3.763 3.763 0 10.001-7.527 3.763 3.763 0 00-.001 7.527zm21.778-25.541a3.746 3.746 0 010 5.324 3.745 3.745 0 01-5.324 0 3.744 3.744 0 010-5.324 3.745 3.745 0 015.324 0zM51.592 189.367a3.763 3.763 0 100-7.525 3.763 3.763 0 000 7.525zm19.135-19.135a3.763 3.763 0 100-7.526 3.763 3.763 0 000 7.526zm19.135-19.135a3.763 3.763 0 10.001-7.525 3.763 3.763 0 000 7.525zm21.778-25.541a3.746 3.746 0 010 5.325 3.745 3.745 0 01-5.324 0 3.746 3.746 0 010-5.325 3.745 3.745 0 015.324 0zm16.453-12.73a3.763 3.763 0 100-7.525 3.763 3.763 0 000 7.525zm-60.008 83.908a3.745 3.745 0 010 5.324 3.744 3.744 0 01-5.324 0 3.745 3.745 0 010-5.324 3.82 3.82 0 015.324 0zm16.453-12.69a3.763 3.763 0 100-7.526 3.763 3.763 0 000 7.526zm21.778-25.541a3.745 3.745 0 010 5.324 3.746 3.746 0 01-5.325 0 3.745 3.745 0 010-5.324c1.481-1.481 3.883-1.481 5.325 0zm16.493-12.73a3.763 3.763 0 100-7.527 3.763 3.763 0 000 7.527zm21.778-25.54a3.745 3.745 0 010 5.324 3.746 3.746 0 01-5.325 0 3.745 3.745 0 010-5.324c1.481-1.482 3.843-1.442 5.325 0zm-59.529 93.515a3.745 3.745 0 010 5.324 3.746 3.746 0 01-5.324 0 3.745 3.745 0 010-5.324c1.481-1.482 3.883-1.482 5.325 0zm19.136-19.136a3.746 3.746 0 010 5.325 3.746 3.746 0 01-5.324 0 3.746 3.746 0 010-5.325c1.481-1.441 3.883-1.441 5.324 0zm19.135-19.135a3.745 3.745 0 010 5.324 3.745 3.745 0 01-5.324 0 3.745 3.745 0 010-5.324 3.819 3.819 0 015.324 0zm16.454-12.69a3.763 3.763 0 100-7.527 3.763 3.763 0 000 7.527zm-43.555 71.177a3.763 3.763 0 100-7.526 3.763 3.763 0 000 7.526zm21.777-25.541a3.746 3.746 0 010 5.325 3.745 3.745 0 01-5.324 0 3.746 3.746 0 010-5.325c1.481-1.441 3.883-1.441 5.324 0zm16.493-12.69a3.763 3.763 0 100-7.525 3.763 3.763 0 000 7.525zm-18.615 48.839a3.745 3.745 0 010 5.324 3.743 3.743 0 01-5.324 0 3.745 3.745 0 010-5.324c1.481-1.481 3.883-1.481 5.324 0zm19.136-19.135a3.745 3.745 0 010 5.324 3.746 3.746 0 01-5.325 0 3.745 3.745 0 010-5.324 3.746 3.746 0 015.325 0z"/></g></svg>