<svg width="125" height="209" fill="none" xmlns="http://www.w3.org/2000/svg"><mask id="a" maskUnits="userSpaceOnUse" x="0" y="0" width="125" height="209"><path fill="#C4C4C4" d="M0 0h125v209H0z"/></mask><g mask="url(#a)" fill="#CED6DB"><path d="M12.94 0H9.536v3.404h3.404V0zm0 20.575H9.536v3.404h3.404v-3.404zm0 20.591H9.536v3.404h3.404v-3.404zm0 20.574H9.536v3.405h3.404V61.74zm0 20.575H9.536v3.404h3.404v-3.404zm0 20.575H9.536v3.404h3.404v-3.404zm0 20.591H9.536v3.404h3.404v-3.404zm0 20.574H9.536v3.405h3.404v-3.405zm0 20.575H9.536v3.404h3.404v-3.404zm0 20.591H9.536v3.404h3.404v-3.404zm0 20.575H9.536v3.404h3.404v-3.404zM31.574 0H28.17v3.404h3.404V0zm0 20.575H28.17v3.404h3.404v-3.404zm0 20.591H28.17v3.404h3.404v-3.404zm0 20.574H28.17v3.405h3.404V61.74zm0 20.575H28.17v3.404h3.404v-3.404zm0 20.575H28.17v3.404h3.404v-3.404zm0 20.591H28.17v3.404h3.404v-3.404zm0 20.574H28.17v3.405h3.404v-3.405zm0 20.575H28.17v3.404h3.404v-3.404zm0 20.591H28.17v3.404h3.404v-3.404zm0 20.575H28.17v3.404h3.404v-3.404zM50.208 0h-3.404v3.404h3.404V0zm0 20.575h-3.404v3.404h3.404v-3.404zm0 20.591h-3.404v3.404h3.404v-3.404zm0 20.574h-3.404v3.405h3.404V61.74zm0 20.575h-3.404v3.404h3.404v-3.404zm0 20.575h-3.404v3.404h3.404v-3.404zm0 20.591h-3.404v3.404h3.404v-3.404zm0 20.574h-3.404v3.405h3.404v-3.405zm0 20.575h-3.404v3.404h3.404v-3.404zm0 20.591h-3.404v3.404h3.404v-3.404zm0 20.575h-3.404v3.404h3.404v-3.404zM68.842 0h-3.404v3.404h3.404V0zm0 20.575h-3.404v3.404h3.404v-3.404zm0 20.591h-3.404v3.404h3.404v-3.404zm0 20.574h-3.404v3.405h3.404V61.74zm0 20.575h-3.404v3.404h3.404v-3.404zm0 20.575h-3.404v3.404h3.404v-3.404zm0 20.591h-3.404v3.404h3.404v-3.404zm0 20.574h-3.404v3.405h3.404v-3.405zm0 20.575h-3.404v3.404h3.404v-3.404zm0 20.591h-3.404v3.404h3.404v-3.404zm0 20.575h-3.404v3.404h3.404v-3.404zM87.46 0h-3.405v3.404h3.405V0zm0 20.575h-3.405v3.404h3.405v-3.404zm0 20.591h-3.405v3.404h3.405v-3.404zm0 20.574h-3.405v3.405h3.405V61.74zm0 20.575h-3.405v3.404h3.405v-3.404zm0 20.575h-3.405v3.404h3.405v-3.404zm0 20.591h-3.405v3.404h3.405v-3.404zm0 20.574h-3.405v3.405h3.405v-3.405zm0 20.575h-3.405v3.404h3.405v-3.404zm0 20.591h-3.405v3.404h3.405v-3.404zm0 20.575h-3.405v3.404h3.405v-3.404zM106.093 0h-3.404v3.404h3.404V0zm0 20.575h-3.404v3.404h3.404v-3.404zm0 20.591h-3.404v3.404h3.404v-3.404zm0 20.574h-3.404v3.405h3.404V61.74zm0 20.575h-3.404v3.404h3.404v-3.404zm0 20.575h-3.404v3.404h3.404v-3.404zm0 20.591h-3.404v3.404h3.404v-3.404zm0 20.574h-3.404v3.405h3.404v-3.405zm0 20.575h-3.404v3.404h3.404v-3.404zm0 20.591h-3.404v3.404h3.404v-3.404zm0 20.575h-3.404v3.404h3.404v-3.404zM124.727 0h-3.404v3.404h3.404V0zm0 20.575h-3.404v3.404h3.404v-3.404zm0 20.591h-3.404v3.404h3.404v-3.404zm0 20.574h-3.404v3.405h3.404V61.74zm0 20.575h-3.404v3.404h3.404v-3.404zm0 20.575h-3.404v3.404h3.404v-3.404zm0 20.591h-3.404v3.404h3.404v-3.404zm0 20.574h-3.404v3.405h3.404v-3.405zm0 20.575h-3.404v3.404h3.404v-3.404zm0 20.591h-3.404v3.404h3.404v-3.404zm0 20.575h-3.404v3.404h3.404v-3.404z"/></g></svg>