<svg version="1.1" id="Слой_1" xmlns="http://www.w3.org/2000/svg" x="0" y="0" viewBox="0 0 150 75" xml:space="preserve"><style>.st0{fill:#fff}</style><switch><g><path class="st0" d="M0 3.8h7.4v16.9h.4c1.7 0 2.5-.8 3.5-3.8l1.1-3.4h7.9l-2.1 6.1c-.8 2.4-1.7 3.2-2.9 3.6 4.6.9 4.8 5.3 4.8 7.6v5.5h-7.5v-5.1c0-3.5-1.9-3.8-3.5-3.8H7.4v8.9H0V3.8zm23.6 32.6V13.6h6.6v3.5c1-3.5 4-3.7 6.1-3.7h.5v7h-1.1c-1.6 0-4.6.2-4.6 4.1v11.8h-7.5zm63.5-12.7v40.2h-7.5V23.2c0-1.8-.9-3.2-2.6-3.2-1.7 0-2.6 1.4-2.6 3.2v13.2h-7.5V23.7c0-2.3.4-6.5 4.4-9 1.7-1.1 3.7-1.5 5.7-1.5s4 .4 5.7 1.5c4.1 2.5 4.4 6.7 4.4 9"/><path class="st0" d="M51.3 53.6c0-7.9 4.5-11.1 7.6-12.2 1.5-.5 3.2-.7 4.8-.7 2.1 0 4.2.4 6.1 1.3 4 2 6.7 6.3 6.7 11 0 2.1-.5 4.1-1.5 5.9-1.6 2.9-5 5.6-10.2 5.6-1.5 0-2.6-.3-4-.8v-6.8c1.1.5 2 .7 3.1.7 3.5 0 5.2-2.1 5.2-4.7 0-3.1-2.3-5.3-5.2-5.3-2.7 0-5.1 1.9-5.1 6.2v20h-7.5V53.6zm56.6.5c0-2.5-.4-4.8-2.6-6-.7-.4-1.6-.6-2.5-.6-.9 0-1.8.2-2.6.7-1.5.9-2.5 2.5-2.5 4.4 0 1.5.7 3.2 2.5 4.2.8.5 1.7.7 2.6.7.9 0 2.1-.2 3.2-.6v6.7c-1.4.5-2.6.8-4.1.8-5.7 0-11.6-4.1-11.6-11.4 0-4.7 2.7-9.1 6.7-11 1.9-.9 4-1.3 6.1-1.3 1.6 0 3.2.2 4.8.7 4 1.5 7.6 5.4 7.6 12.1V64H108v-9.9zm10.4 3.2h6.2c1 0 2.3.1 2.3-.8 0-1-1.5-1.5-2.7-2.1-1.5-.7-3.4-1.6-4.5-3.2-.7-1.1-1.1-2.5-1.1-3.8 0-1.4.4-2.6 1.2-3.7 2.1-2.8 5.3-2.6 7.4-2.6h6.1v6.5h-4.9c-.9 0-2.4-.2-2.4 1 0 1 1.9 1.7 3.4 2.4 1.6.7 3.4 1.7 4.2 3 .6.9.9 2.1.9 3.3 0 1.3-.4 2.5-1 3.6-1.9 2.9-4.8 3-7.7 3h-7.2v-6.6zm31.6-16.2v6.8h-5.3v4.9c0 1-.2 2.8.9 3.7.7.6 2 .6 3.5.6h1v6.8h-2.1c-3.1 0-6.1-.1-8.5-2.3-2.4-2.3-2.4-4.9-2.4-8v-18h7.5V41h5.4zM51.6 13.2c-6.9 0-12.5 5.3-12.5 11.9 0 6.6 5.6 11.8 12.5 11.8S64 31.6 64 25c0-6.6-5.5-11.8-12.4-11.8m0 18.1c-2.4 0-6.3-1.5-4.8-6.8.8-3.1 4.4-7.1 4.8-7.1.5 0 3.8 3.7 4.8 7 1.6 5.8-2.5 6.9-4.8 6.9"/><path d="M102.2 1.6c-.2-.3-.6-.3-.8 0-2.2 3-12 16-12 22.9 0 6.9 5.6 12.4 12.4 12.4s12.4-5.6 12.4-12.4c0-7-9.8-20-12-22.9m-.4 29.4c-3.7 0-6.8-3-6.8-6.8s5.3-10.8 6.5-12.4c.1-.2.3-.2.5 0 1.2 1.6 6.5 8.7 6.5 12.4.1 3.8-3 6.8-6.7 6.8" fill="#e30613"/></g></switch></svg>